<svg xmlns="http://www.w3.org/2000/svg" width="39.285" height="39.285" viewBox="0 0 39.285 39.285">
  <g id="aries" transform="translate(0)">
    <path id="Tracé_190" data-name="Tracé 190" d="M24.057,4.85a4.783,4.783,0,0,0-4.031,2.169.546.546,0,0,0-.171.171l-.188.307h0A9.53,9.53,0,0,0,19,9.069c-.461,1.571-1.025,4.56-1.52,7.327-.5-2.767-1.059-5.756-1.52-7.327A9.531,9.531,0,0,0,15.294,7.5h0l-.188-.307a1.606,1.606,0,0,0-.171-.171A4.783,4.783,0,0,0,10.871,4.85a5.5,5.5,0,0,0-5.38,5.585,5.5,5.5,0,0,0,5.38,5.585,1.708,1.708,0,1,0,0-3.416,2.084,2.084,0,0,1-1.964-2.169,2.084,2.084,0,0,1,1.964-2.169,1.452,1.452,0,0,1,1.418.888c.12.239.325.717.376.871.905,3.109,2.443,13.049,2.477,13.237a5.125,5.125,0,0,1,0,.717l.529,5.449a1.708,1.708,0,0,0,1.5,1.52h.444a1.708,1.708,0,0,0,1.5-1.52l.615-5.534a3.194,3.194,0,0,1,0-.632c0-.1,1.554-10.043,2.46-13.152a3.925,3.925,0,0,1,.376-.871h0a1.452,1.452,0,0,1,1.418-.888,2.084,2.084,0,0,1,1.964,2.169,2.084,2.084,0,0,1-1.964,2.169,1.708,1.708,0,1,0,0,3.416,5.5,5.5,0,0,0,5.38-5.585A5.5,5.5,0,0,0,24.057,4.85Z" transform="translate(2.179 1.726)" fill="#437f97"/>
    <path id="Tracé_191" data-name="Tracé 191" d="M35.161,1H6.124A5.124,5.124,0,0,0,1,6.124V35.161a5.124,5.124,0,0,0,5.124,5.124H35.161a5.124,5.124,0,0,0,5.124-5.124V6.124A5.124,5.124,0,0,0,35.161,1Zm1.708,34.161a1.708,1.708,0,0,1-1.708,1.708H6.124a1.708,1.708,0,0,1-1.708-1.708V6.124A1.708,1.708,0,0,1,6.124,4.416H35.161a1.708,1.708,0,0,1,1.708,1.708Z" transform="translate(-1 -1)" fill="#437f97"/>
  </g>
</svg>
