<svg xmlns="http://www.w3.org/2000/svg" width="39.285" height="39.285" viewBox="0 0 39.285 39.285">
  <g id="cancer" transform="translate(0)">
    <path id="Tracé_192" data-name="Tracé 192" d="M31.346,8.663a4.936,4.936,0,0,0-1.11-1.913,5.124,5.124,0,0,0-1.11-.888h0l-.82-.41h0a5.91,5.91,0,0,0-3.877-.325A6.405,6.405,0,0,0,22.174,6.2a4.663,4.663,0,0,0-.529.461l-.376.342h0a6.081,6.081,0,0,0-.7.905,6.508,6.508,0,0,0-.717,1.52,1.676,1.676,0,0,0-2.579-1.759,31.377,31.377,0,0,0-5.124,3.963A25.023,25.023,0,0,0,5.162,22a6.422,6.422,0,0,0-.512,3.826,5.124,5.124,0,0,0,.376,1.264,4.885,4.885,0,0,0,.991,1.862,4.817,4.817,0,0,0,1.093.871h0a5.824,5.824,0,0,0,3.228.837A6.337,6.337,0,0,0,14.095,29.4l.222-.171a4.816,4.816,0,0,0,.615-.564.581.581,0,0,0,.1-.1h0a6.833,6.833,0,0,0,.7-.871,6.969,6.969,0,0,0,.717-1.537A1.7,1.7,0,0,0,19,28a30.01,30.01,0,0,0,5.124-3.963,24.954,24.954,0,0,0,7-10.385,6.508,6.508,0,0,0,.222-4.987ZM27.93,12.745a3.16,3.16,0,0,1-1.862,1.366,2.494,2.494,0,0,1-3.109-2,3.211,3.211,0,0,1,.5-2.272h0a3.126,3.126,0,0,1,.786-.854,3.57,3.57,0,0,1,1.708-.5,2.784,2.784,0,0,1,1.332.273,2.494,2.494,0,0,1,.7.7,2.391,2.391,0,0,1,.154.29v.137a3.587,3.587,0,0,1,.1,1.008,7.105,7.105,0,0,1-.29,1.708ZM8.492,22.993a3.109,3.109,0,0,1,2.545-1.452,2.289,2.289,0,0,1,1.315.393,2.545,2.545,0,0,1,1.11,1.708,3.211,3.211,0,0,1-.5,2.272,3.416,3.416,0,0,1-.786.854,3.57,3.57,0,0,1-1.742.478,2.6,2.6,0,0,1-1.332-.273h0a2.6,2.6,0,0,1-.683-.683,2.442,2.442,0,0,1-.2-.359h0a3.16,3.16,0,0,1-.1-1.025,7.106,7.106,0,0,1,.29-1.708Zm13.442-1.366a27.329,27.329,0,0,1-4.663,3.484,1.708,1.708,0,0,0-.752,1.025,6.542,6.542,0,0,0,.239-3.143,5.807,5.807,0,0,0-5.842-4.885,27.96,27.96,0,0,1,3.519-4,27.329,27.329,0,0,1,4.543-3.519,1.708,1.708,0,0,0,.752-1.025,6.542,6.542,0,0,0-.239,3.143,5.859,5.859,0,0,0,5.773,4.9h0a27.84,27.84,0,0,1-3.416,3.98Z" transform="translate(1.517 1.79)" fill="#437f97"/>
    <path id="Tracé_193" data-name="Tracé 193" d="M35.161,1H6.124A5.124,5.124,0,0,0,1,6.124V35.161a5.124,5.124,0,0,0,5.124,5.124H35.161a5.124,5.124,0,0,0,5.124-5.124V6.124A5.124,5.124,0,0,0,35.161,1Zm1.708,34.161a1.708,1.708,0,0,1-1.708,1.708H6.124a1.708,1.708,0,0,1-1.708-1.708V6.124A1.708,1.708,0,0,1,6.124,4.416H35.161a1.708,1.708,0,0,1,1.708,1.708Z" transform="translate(-1 -1)" fill="#437f97"/>
  </g>
</svg>
