<svg class="svg-icon" enable-background="new 0 0 561 561" version="1.1" viewBox="0 0 561 561" xml:space="preserve" xmlns="http://www.w3.org/2000/svg">
		<path d="m510 51h-459c-28.05 0-51 22.95-51 51v76.5h51v-76.5h459v357h-178.5v51h178.5c28.05 0 51-22.95 51-51v-357c0-28.05-22.95-51-51-51zm-510 382.5v76.5h76.5c0-43.35-33.15-76.5-76.5-76.5zm0-102v51c71.4 0 127.5 56.1 127.5 127.5h51c0-99.45-79.05-178.5-178.5-178.5zm0-102v51c127.5 0 229.5 102 229.5 229.5h51c0-155.55-124.95-280.5-280.5-280.5z"/>
</svg>
