<svg xmlns="http://www.w3.org/2000/svg" width="27.904" height="27.904" viewBox="0 0 27.904 27.904">
  <g id="_1904659-arrow-backup-down-download-save-storage-transfer_122509" data-name="1904659-arrow-backup-down-download-save-storage-transfer_122509" transform="translate(1 1)">
    <path id="Tracé_173" data-name="Tracé 173" d="M39.936,18.845h0a.607.607,0,0,0,.089.073l.049.026a.352.352,0,0,0,.119.049l.051.014h0a.607.607,0,0,0,.235,0l.053-.016.061-.018a.606.606,0,0,0,.061-.032l.043-.024a.608.608,0,0,0,.093-.077l5.446-5.44a.607.607,0,1,0-.852-.852l-4.41,4.4V.607a.607.607,0,1,0-1.214,0V16.951l-4.41-4.4a.607.607,0,0,0-.852.852Z" transform="translate(-27.412)" fill="#d9000d"/>
    <path id="Tracé_173_-_Contour" data-name="Tracé 173 - Contour" d="M40.361,20.019a1.611,1.611,0,0,1-.311-.03l-.038-.008-.065-.018a1.345,1.345,0,0,1-.372-.151l-.068-.037-.039-.026a1.611,1.611,0,0,1-.236-.193l0,0-5.484-5.49-.038-.049a1.607,1.607,0,0,1,2.255-2.255l.049.038,2.747,2.743V.607a1.607,1.607,0,0,1,3.214,0V14.539l2.669-2.665a1.607,1.607,0,0,1,1.571-.522,1.607,1.607,0,0,1,.7,2.788l-5.412,5.406a1.61,1.61,0,0,1-.243.2l-.03.02-.065.037a1.611,1.611,0,0,1-.146.077l-.064.03-.224.068-.051.01A1.611,1.611,0,0,1,40.361,20.019Z" transform="translate(-27.412)" fill="#d9000d"/>
    <path id="Tracé_174" data-name="Tracé 174" d="M25.3,88a.607.607,0,0,0-.607.607v4.452a1.821,1.821,0,0,1-1.821,1.821H3.036a1.821,1.821,0,0,1-1.821-1.821V88.607a.607.607,0,0,0-1.214,0v4.452A3.036,3.036,0,0,0,3.036,96.1H22.869A3.036,3.036,0,0,0,25.9,93.059V88.607A.607.607,0,0,0,25.3,88Z" transform="translate(0 -70.191)" fill="#d9000d"/>
    <path id="Tracé_174_-_Contour" data-name="Tracé 174 - Contour" d="M.607,87a1.609,1.609,0,0,1,1.607,1.607v4.452a.822.822,0,0,0,.821.821H22.869a.822.822,0,0,0,.821-.821V88.607a1.607,1.607,0,0,1,3.214,0v4.452A4.04,4.04,0,0,1,22.869,97.1H3.036A4.04,4.04,0,0,1-1,93.059V88.607A1.609,1.609,0,0,1,.607,87Z" transform="translate(0 -70.191)" fill="#d9000d"/>
  </g>
</svg>
