<svg xmlns="http://www.w3.org/2000/svg" width="32.49" height="28.804" viewBox="0 0 32.49 28.804">
  <path id="Icon_awesome-heart" data-name="Icon awesome-heart" d="M7.693.748a9.8,9.8,0,0,1,7,3l.056.058.058-.06a9.816,9.816,0,0,1,7-3A8.826,8.826,0,0,1,27.6,2.87a9.56,9.56,0,0,1,2.444,3.184A9.8,9.8,0,0,1,28.268,17.03L17.124,28.538a3.306,3.306,0,0,1-4.764,0L1.215,17.03A9.807,9.807,0,0,1-.554,6.053,9.56,9.56,0,0,1,1.889,2.871,8.829,8.829,0,0,1,7.693.748Zm7.052,7.371L12.533,5.84A6.79,6.79,0,0,0,7.693,3.748,5.866,5.866,0,0,0,3.835,5.154,6.636,6.636,0,0,0,1.507,9.937,6.753,6.753,0,0,0,3.37,14.943L14.515,26.451a.306.306,0,0,0,.454,0L26.114,14.943a6.75,6.75,0,0,0,1.868-5.006,6.633,6.633,0,0,0-2.328-4.784A5.863,5.863,0,0,0,21.8,3.748a6.8,6.8,0,0,0-4.842,2.092Z" transform="translate(1.501 -0.748)" fill="#d9000d"/>
</svg>
