<svg xmlns="http://www.w3.org/2000/svg" width="39.285" height="39.285" viewBox="0 0 39.285 39.285">
  <g id="leo" transform="translate(0)">
    <path id="Tracé_194" data-name="Tracé 194" d="M27.1,18.114a4.578,4.578,0,0,1-1.708-4.151,1.845,1.845,0,0,0,0-.325V13.4a8.421,8.421,0,0,0-8.267-8.54A8.421,8.421,0,0,0,8.856,13.4,8.8,8.8,0,0,0,10,17.738,6.832,6.832,0,0,0,6.123,24.11,6.525,6.525,0,0,0,12.2,30.942a6.525,6.525,0,0,0,6.081-6.832,6.952,6.952,0,0,0-3.519-6.2h0A5.227,5.227,0,0,1,12.221,13.4a5,5,0,0,1,4.851-5.124A5,5,0,0,1,21.923,13.4q0,.128,0,.256v.154a7.823,7.823,0,0,0,3.416,7.276A1.728,1.728,0,0,0,27.1,18.114ZM12.153,27.56a3.143,3.143,0,0,1-2.665-3.416,3.143,3.143,0,0,1,2.665-3.416,3.143,3.143,0,0,1,2.665,3.416,3.143,3.143,0,0,1-2.665,3.416Z" transform="translate(2.622 1.733)" fill="#437f97"/>
    <path id="Tracé_195" data-name="Tracé 195" d="M35.161,1H6.124A5.124,5.124,0,0,0,1,6.124V35.161a5.124,5.124,0,0,0,5.124,5.124H35.161a5.124,5.124,0,0,0,5.124-5.124V6.124A5.124,5.124,0,0,0,35.161,1Zm1.708,34.161a1.708,1.708,0,0,1-1.708,1.708H6.124a1.708,1.708,0,0,1-1.708-1.708V6.124A1.708,1.708,0,0,1,6.124,4.416H35.161a1.708,1.708,0,0,1,1.708,1.708Z" transform="translate(-1 -1)" fill="#437f97"/>
  </g>
</svg>
