<svg xmlns="http://www.w3.org/2000/svg" width="39.285" height="39.285" viewBox="0 0 39.285 39.285">
  <g id="omega" transform="translate(0)">
    <path id="Tracé_196" data-name="Tracé 196" d="M6.248,23.235H13.08a1.708,1.708,0,0,0,1.093-3.006,6.2,6.2,0,1,1,7.977,0,1.708,1.708,0,0,0,1.11,3.006h6.832a1.708,1.708,0,0,0,0-3.416H26.745a9.616,9.616,0,1,0-17.08,0H6.248a1.708,1.708,0,0,0,0,3.416Z" transform="translate(1.506 2.386)" fill="#437f97"/>
    <path id="Tracé_197" data-name="Tracé 197" d="M30.121,17.12H6.208a1.708,1.708,0,0,0,0,3.416H30.121a1.708,1.708,0,1,0,0-3.416Z" transform="translate(1.478 10.414)" fill="#437f97"/>
    <path id="Tracé_198" data-name="Tracé 198" d="M35.161,1H6.124A5.124,5.124,0,0,0,1,6.124V35.161a5.124,5.124,0,0,0,5.124,5.124H35.161a5.124,5.124,0,0,0,5.124-5.124V6.124A5.124,5.124,0,0,0,35.161,1Zm1.708,34.161a1.708,1.708,0,0,1-1.708,1.708H6.124a1.708,1.708,0,0,1-1.708-1.708V6.124A1.708,1.708,0,0,1,6.124,4.416H35.161a1.708,1.708,0,0,1,1.708,1.708Z" transform="translate(-1 -1)" fill="#437f97"/>
  </g>
</svg>
