<svg id="radio-microphone_icon-icons.com_53914" xmlns="http://www.w3.org/2000/svg" width="13.563" height="24.113" viewBox="0 0 13.563 24.113">
  <path id="Tracé_160" data-name="Tracé 160" d="M15.556,10.521a4.862,4.862,0,0,1-4.521,4.521H9.528a4.862,4.862,0,0,1-4.521-4.521V6H3.5v4.521a6.483,6.483,0,0,0,6.028,6.028v3.014H5.007V21.07H15.556V19.563H11.035V16.549a6.483,6.483,0,0,0,6.028-6.028V6H15.556Z" transform="translate(-3.5 3.042)" fill="#fff"/>
  <path id="Tracé_161" data-name="Tracé 161" d="M10.014,16.577a3.019,3.019,0,0,0,3.022-3V3a3.008,3.008,0,0,0-3.022-3H8.522A3.019,3.019,0,0,0,5.5,3V13.575a3.008,3.008,0,0,0,3.022,3Z" transform="translate(-2.486)" fill="#fff"/>
</svg>
