<svg id="radio_icon-icons.com_73182" xmlns="http://www.w3.org/2000/svg" width="35.547" height="31.113" viewBox="0 0 35.547 31.113">
  <g id="_x35__13_">
    <g id="Groupe_23" data-name="Groupe 23">
      <path id="Tracé_162" data-name="Tracé 162" d="M12.219,60.4H5.554a1.111,1.111,0,0,0,0,2.222h6.665a1.111,1.111,0,0,0,0-2.222Zm0-4.443H5.554a1.111,1.111,0,0,0,0,2.222h6.665a1.111,1.111,0,0,0,0-2.222ZM31.1,44.85H28.771l-11.7-6.532a1.137,1.137,0,0,0-1.517.39,1.043,1.043,0,0,0,.407,1.456l8.452,4.684H4.443A4.444,4.444,0,0,0,0,49.292V64.844a4.444,4.444,0,0,0,4.443,4.443H31.1a4.444,4.444,0,0,0,4.443-4.443V49.292A4.443,4.443,0,0,0,31.1,44.85Zm2.222,20A2.221,2.221,0,0,1,31.1,67.067H4.443a2.222,2.222,0,0,1-2.222-2.222V49.293a2.222,2.222,0,0,1,2.222-2.222H31.1a2.222,2.222,0,0,1,2.222,2.222Zm-10-14.441a6.665,6.665,0,1,0,6.665,6.665A6.665,6.665,0,0,0,23.328,50.4Zm0,11.109a4.443,4.443,0,1,1,4.443-4.443A4.444,4.444,0,0,1,23.328,61.513Zm-11.109-10H5.554a1.111,1.111,0,0,0,0,2.222h6.665a1.111,1.111,0,0,0,0-2.222Z" transform="translate(0 -38.175)" fill="#fff"/>
    </g>
  </g>
</svg>
