<svg xmlns="http://www.w3.org/2000/svg" width="39" height="27.3" viewBox="0 0 39 27.3">
  <path id="vote_yea_icon_195381" d="M37.05,49.55h-3.9v3.9h1.365a.544.544,0,0,1,.585.487v.975a.544.544,0,0,1-.585.488H4.485a.544.544,0,0,1-.585-.488v-.975a.544.544,0,0,1,.585-.487H5.85v-3.9H1.95A1.948,1.948,0,0,0,0,51.5v5.85A1.948,1.948,0,0,0,1.95,59.3h35.1A1.948,1.948,0,0,0,39,57.35V51.5A1.948,1.948,0,0,0,37.05,49.55Zm-5.85,3.9V33.968A1.967,1.967,0,0,0,29.232,32H9.774A1.973,1.973,0,0,0,7.8,33.968V53.45ZM12.87,42.359l1.554-1.542a.649.649,0,0,1,.926.006l2.517,2.535,5.8-5.753a.649.649,0,0,1,.926.006l1.542,1.554a.649.649,0,0,1-.006.926l-7.818,7.751a.649.649,0,0,1-.926-.006L12.87,43.286a.649.649,0,0,1,0-.926Z" transform="translate(0 -32)" fill="#fff"/>
</svg>
